<?xml version="1.0" encoding="utf-8"?>
<svg viewBox="0 0 256 256" xmlns="http://www.w3.org/2000/svg">
  <g id="g1" transform="matrix(0.12124200910329819, 0, 0, 0.12124200910329819, -22.118511199951286, -23.785013198852653)" style="">
    <path id="path24" d="m 2119.134,1251.9175 c 0,486.5427 -394.3964,880.9691 -880.9692,880.9691 -486.54257,0 -880.95389,-394.4264 -880.95389,-880.9691 0,-486.54258 394.41132,-880.96907 880.95389,-880.96907 486.5728,0 880.9692,394.42649 880.9692,880.96907" style="fill:#f47315;fill-opacity:1;fill-rule:nonzero;stroke:none;stroke-width:0.300836"/>
    <path id="path25" d="m 2051.1751,1251.9175 c 0,448.9983 -363.9818,813.0102 -813.0103,813.0102 -448.99817,0 -812.98294,-364.0119 -812.98294,-813.0102 0,-448.99823 363.98477,-813.01015 812.98294,-813.01015 449.0285,0 813.0103,364.01192 813.0103,813.01015" style="fill:#fdf1ad;fill-opacity:1;fill-rule:nonzero;stroke:none;stroke-width:0.300836"/>
    <path id="path26" d="m 1652.1759,753.67238 -403.8127,481.27792 593.0386,-155.1413 c 44.4637,-11.6423 69.9445,-58.5126 55.2035,-102.04361 -20.9682,-62.0626 -58.994,-149.30511 -123.2527,-224.72476 -31.7983,-37.3338 -89.6191,-36.9427 -121.1767,0.63175" style="fill:#f78d27;fill-opacity:1;fill-rule:nonzero;stroke:none;stroke-width:0.300836"/>
    <path id="path27" d="m 1874.7044,1142.2326 -618.6999,109.0832 554.0202,262.3594 c 41.5154,19.6747 91.1834,0.1512 107.8799,-42.6887 23.8262,-61.0096 50.7812,-152.2833 50.029,-251.3488 -0.361,-49.0663 -44.9147,-85.9489 -93.2292,-77.4051" style="fill:#f78d27;fill-opacity:1;fill-rule:nonzero;stroke:none;stroke-width:0.300836"/>
    <path id="path28" d="m 1795.4041,1582.8976 -544.0627,-314.1333 255.7411,557.1188 c 19.1934,41.7561 69.7639,58.7233 110.1061,36.6418 57.4598,-31.4373 136.7601,-84.0236 199.8757,-160.4058 31.2568,-37.8152 20.848,-94.7032 -21.6602,-119.2215" style="fill:#f78d27;fill-opacity:1;fill-rule:nonzero;stroke:none;stroke-width:0.300836"/>
    <path id="path29" d="m 1451.3977,1869.5045 -214.8574,-590.3613 -162.1809,591.1735 c -12.1536,44.3132 15.7037,89.8297 60.7691,98.8248 64.2284,12.8756 158.7814,23.5554 256.2523,5.6255 48.224,-8.8746 76.8035,-59.1443 60.0169,-105.2625" style="fill:#f78d27;fill-opacity:1;fill-rule:nonzero;stroke:none;stroke-width:0.300836"/>
    <path id="path30" d="m 1003.663,1867.94 214.8574,-590.3612 -504.20177,348.6093 c -37.8151,26.1425 -45.724,78.9092 -16.9972,114.7689 40.9437,51.1722 106.4961,120.1239 192.6857,169.0399 42.6584,24.1872 96.8692,4.0613 113.65587,-42.0569" style="fill:#f78d27;fill-opacity:1;fill-rule:nonzero;stroke:none;stroke-width:0.300836"/>
    <path id="path31" d="m 661.66333,1578.9266 544.07137,-314.1032 -610.32157,-57.0687 c -45.7663,-4.2719 -85.7414,31.0463 -86.7973,77.0141 -1.5072,65.4921 4.3741,160.4661 38.9613,253.3041 17.1266,45.968 71.6019,65.4019 114.0862,40.8537" style="fill:#f78d27;fill-opacity:1;fill-rule:nonzero;stroke:none;stroke-width:0.300836"/>
    <path id="path32" d="M 585.45243,1137.72 1204.1705,1246.8033 773.28243,810.8012 c -32.2795,-32.7009 -85.6178,-31.34714 -115.9782,3.18886 -43.2573,49.21681 -99.7995,125.71953 -132.9848,219.09914 -16.4316,46.2084 12.8217,96.1172 61.133,104.6308" style="fill:#f78d27;fill-opacity:1;fill-rule:nonzero;stroke:none;stroke-width:0.300836"/>
    <path id="path33" d="m 810.67663,750.72418 403.84247,481.27792 -49.7883,-610.96846 c -3.7305,-45.81736 -45.4864,-79.05978 -90.9129,-72.11046 -64.7699,9.89752 -157.27697,32.18949 -242.71457,82.36899 -42.2977,24.84907 -51.9545,81.85756 -20.4267,119.43201" style="fill:#f78d27;fill-opacity:1;fill-rule:nonzero;stroke:none;stroke-width:0.300836"/>
    <path id="path34" d="m 1231.9677,599.0726 v 628.2365 l 354.5958,-500.02005 c 26.5638,-37.5143 15.9744,-89.79965 -23.315,-113.68606 -55.9555,-34.05466 -141.1524,-76.44251 -238.8638,-92.92835 -48.3745,-8.15265 -92.417,29.33155 -92.417,78.39796" style="fill:#f78d27;fill-opacity:1;fill-rule:nonzero;stroke:none;stroke-width:0.300836"/>
    <path id="path35" d="m 1563.2485,613.60299 c -55.9555,-34.05466 -141.1524,-76.44251 -238.8638,-92.92835 -48.3745,-8.15265 -92.417,29.33155 -92.417,78.39796 v 628.2365 l 354.5958,-500.02005 c 26.5638,-37.5143 15.9744,-89.79965 -23.315,-113.68606" style="fill:#f78d27;fill-opacity:1;fill-rule:nonzero;stroke:none;stroke-width:0.300836"/>
  </g>
</svg>