<?xml version="1.0" encoding="utf-8"?>
<svg viewBox="0 0 24 24" width="24px" height="24px" xmlns="http://www.w3.org/2000/svg" xmlns:bx="https://boxy-svg.com"><defs><bx:export><bx:file format="svg"/></bx:export></defs><ellipse style="fill: rgb(143, 143, 143); opacity: 0.4;" cx="12" cy="12" rx="12" ry="12" id="object-0"/><path d="M 9.89 11.916 L 15.438 9.922 L 15.438 13.237 C 15.109 13.047 14.717 12.937 14.296 12.937 C 13.124 12.937 12.175 13.79 12.175 14.844 C 12.175 15.895 13.124 16.749 14.296 16.749 C 15.468 16.749 16.417 15.895 16.417 14.844 C 16.417 14.844 16.417 14.844 16.417 14.844 L 16.417 9.24 C 16.417 8.571 16.417 8.009 16.365 7.561 C 16.358 7.499 16.349 7.434 16.339 7.376 C 16.289 7.071 16.199 6.785 16.026 6.547 C 15.941 6.428 15.834 6.32 15.701 6.228 C 15.675 6.21 15.65 6.194 15.622 6.177 L 15.617 6.174 C 15.155 5.898 14.636 5.918 14.101 6.041 C 13.584 6.159 12.944 6.4 12.157 6.695 L 10.791 7.209 C 10.423 7.348 10.109 7.465 9.865 7.586 C 9.604 7.715 9.38 7.868 9.212 8.096 C 9.043 8.323 8.973 8.569 8.941 8.834 C 8.911 9.083 8.911 9.387 8.911 9.747 L 8.911 14.409 C 8.582 14.219 8.189 14.111 7.768 14.111 C 6.597 14.111 5.647 14.963 5.647 16.016 C 5.647 17.068 6.597 17.922 7.768 17.922 C 8.94 17.922 9.89 17.068 9.89 16.016 C 9.89 16.016 9.89 16.016 9.89 16.016 L 9.89 11.916 Z" style="fill: rgb(143, 143, 143);"/></svg>