<?xml version="1.0" encoding="utf-8"?>
<svg viewBox="0 0 24 24" xmlns="http://www.w3.org/2000/svg">
  <path d="M 3.754 15.64 Q 3.564 15.64 3.434 15.51 Q 3.304 15.38 3.304 15.19 L 3.304 9.07 Q 3.304 8.88 3.434 8.745 Q 3.564 8.61 3.754 8.61 L 7.644 8.61 Q 7.824 8.61 7.949 8.735 Q 8.074 8.86 8.074 9.04 Q 8.074 9.22 7.949 9.34 Q 7.824 9.46 7.644 9.46 L 4.214 9.46 L 4.214 11.67 L 7.294 11.67 Q 7.474 11.67 7.599 11.795 Q 7.724 11.92 7.724 12.1 Q 7.724 12.28 7.599 12.4 Q 7.474 12.52 7.294 12.52 L 4.214 12.52 L 4.214 15.19 Q 4.214 15.38 4.079 15.51 Q 3.944 15.64 3.754 15.64 Z M 9.834 15.64 Q 9.644 15.64 9.514 15.51 Q 9.384 15.38 9.384 15.19 L 9.384 9.07 Q 9.384 8.88 9.514 8.745 Q 9.644 8.61 9.834 8.61 L 12.114 8.61 Q 12.874 8.61 13.389 8.805 Q 13.904 9 14.209 9.325 Q 14.514 9.65 14.649 10.04 Q 14.784 10.43 14.784 10.83 Q 14.784 11.23 14.649 11.62 Q 14.514 12.01 14.209 12.335 Q 13.904 12.66 13.389 12.855 Q 12.874 13.05 12.114 13.05 L 10.294 13.05 L 10.294 15.19 Q 10.294 15.38 10.159 15.51 Q 10.024 15.64 9.834 15.64 Z M 10.294 12.19 L 12.024 12.19 Q 12.774 12.19 13.174 11.985 Q 13.574 11.78 13.724 11.465 Q 13.874 11.15 13.874 10.83 Q 13.874 10.5 13.724 10.19 Q 13.574 9.88 13.174 9.675 Q 12.774 9.47 12.024 9.47 L 10.294 9.47 Z M 18.303 15.69 Q 17.553 15.69 16.958 15.545 Q 16.363 15.4 15.923 15.21 Q 15.813 15.16 15.728 15.045 Q 15.643 14.93 15.643 14.8 Q 15.643 14.63 15.753 14.505 Q 15.863 14.38 16.053 14.38 Q 16.153 14.38 16.243 14.42 Q 16.583 14.57 17.078 14.7 Q 17.573 14.83 18.213 14.83 Q 18.713 14.83 19.108 14.725 Q 19.503 14.62 19.733 14.365 Q 19.963 14.11 19.963 13.68 Q 19.963 13.36 19.733 13.165 Q 19.503 12.97 19.123 12.84 Q 18.743 12.71 18.288 12.6 Q 17.833 12.49 17.383 12.355 Q 16.933 12.22 16.553 12 Q 16.173 11.78 15.943 11.435 Q 15.713 11.09 15.713 10.56 Q 15.713 10 16.008 9.535 Q 16.303 9.07 16.883 8.79 Q 17.463 8.51 18.303 8.51 Q 18.893 8.51 19.393 8.6 Q 19.893 8.69 20.293 8.84 Q 20.403 8.88 20.488 8.97 Q 20.573 9.06 20.573 9.24 Q 20.573 9.39 20.468 9.525 Q 20.363 9.66 20.173 9.66 Q 20.133 9.66 20.093 9.645 Q 20.053 9.63 20.013 9.62 Q 19.673 9.5 19.268 9.425 Q 18.863 9.35 18.403 9.35 Q 17.643 9.35 17.133 9.64 Q 16.623 9.93 16.623 10.49 Q 16.623 10.86 16.853 11.08 Q 17.083 11.3 17.463 11.43 Q 17.843 11.56 18.293 11.665 Q 18.743 11.77 19.193 11.9 Q 19.643 12.03 20.023 12.245 Q 20.403 12.46 20.633 12.815 Q 20.863 13.17 20.863 13.74 Q 20.863 14.3 20.548 14.745 Q 20.233 15.19 19.658 15.44 Q 19.083 15.69 18.303 15.69 Z" style="fill: rgb(51, 51, 51);"/>
</svg>