<?xml version="1.0" encoding="utf-8"?>
<svg viewBox="0 0 24 24" width="24px" height="24px" xmlns="http://www.w3.org/2000/svg" xmlns:bx="https://boxy-svg.com"><defs><bx:export><bx:file format="svg"/></bx:export></defs><ellipse style="fill: rgb(143, 143, 143); opacity: 0.4;" cx="12" cy="12" rx="12" ry="12" id="object-0"/><path d="M 5.377 11.669 L 5.377 12.332 C 5.377 14.509 5.377 15.597 5.978 16.33 C 6.089 16.464 6.211 16.587 6.346 16.697 C 7.078 17.299 8.167 17.299 10.344 17.299 C 12.522 17.299 13.611 17.299 14.343 16.697 C 14.478 16.587 14.6 16.464 14.71 16.33 C 15.175 15.764 15.281 14.985 15.305 13.656 L 15.748 13.874 C 17.037 14.518 17.681 14.84 18.152 14.55 C 18.623 14.258 18.623 13.538 18.623 12.097 L 18.623 11.904 C 18.623 10.463 18.623 9.742 18.152 9.451 C 17.681 9.16 17.037 9.482 15.748 10.126 L 15.305 10.345 C 15.281 9.015 15.175 8.237 14.71 7.67 C 14.6 7.536 14.478 7.413 14.343 7.303 C 13.611 6.702 12.522 6.702 10.344 6.702 C 8.167 6.702 7.078 6.702 6.346 7.303 C 6.211 7.413 6.089 7.536 5.978 7.67 C 5.377 8.403 5.377 9.492 5.377 11.669 Z" style="fill: rgb(143, 143, 143);" id="object-1"/></svg>